<?xml version="1.0" encoding="UTF-8" standalone="no"?>
<!-- Created with Inkscape (http://www.inkscape.org/) -->

<svg
   version="1.1"
   id="svg1"
   xml:space="preserve"
   width="444.31146"
   height="189.9201"
   xmlns:inkscape="http://www.inkscape.org/namespaces/inkscape"
   xmlns:sodipodi="http://sodipodi.sourceforge.net/DTD/sodipodi-0.dtd"
   xmlns="http://www.w3.org/2000/svg"
   xmlns:svg="http://www.w3.org/2000/svg"><defs
     id="defs1"><clipPath
       id="pce7644dfea"><rect
         x="126"
         y="51.84"
         width="781.20001"
         height="332.64001"
         id="rect108" /></clipPath></defs><sodipodi:namedview
     id="namedview1"
     pagecolor="#ffffff"
     bordercolor="#000000"
     borderopacity="0.25"
     inkscape:showpageshadow="2"
     inkscape:pageopacity="0.0"
     inkscape:pagecheckerboard="0"
     inkscape:deskcolor="#d1d1d1" /><inkscape:clipboard
     style="fill:none;stroke:#0000ff;stroke-width:1.24724418;stroke-linecap:square;stroke-linejoin:round;stroke-dasharray:none"
     min="21.663439,8.9492477"
     max="465.9749,198.86935"
     geom-min="22.392134,9.677944"
     geom-max="465.24621,198.24573" /><g
     id="line2d_29"
     transform="matrix(0.62357844,0,0,0.62357844,-99.984891,-41.026116)"><path
       d="m 161.50909,66.96 4.26963,22.563994 4.26963,21.432076 4.26963,20.33152 4.26963,19.26195 4.26963,18.22296 4.26963,17.21418 4.26963,16.23524 4.26963,15.28573 4.26963,14.36529 4.26963,13.47351 4.26963,12.61002 4.26963,11.77444 4.26963,10.96639 4.26963,10.18546 4.26963,9.4313 4.26963,8.7035 4.26963,8.00169 4.26963,7.32548 2.84642,4.52045 2.84642,4.2385 2.84642,3.96386 2.84642,3.69644 2.84642,3.43617 2.84642,3.18297 2.84642,2.93678 2.84643,2.6975 2.84641,2.46507 2.84642,2.23941 2.84642,2.02045 2.84642,1.80809 2.84643,1.6023 2.84642,1.40295 2.84642,1.21001 2.84642,1.02338 2.84642,0.84298 2.84642,0.66875 2.84642,0.50062 2.84642,0.33848 2.84642,0.18229 4.26963,-0.007 4.26963,-0.32545 4.26963,-0.62519 4.26963,-0.90624 4.26963,-1.16899 4.26963,-1.41382 4.26963,-1.6411 4.26963,-1.85124 4.26963,-2.0446 5.69284,-2.99867 5.69284,-3.27557 5.69284,-3.51591 7.11605,-4.67912 8.53926,-5.94462 9.96247,-7.25272 18.50173,-13.85122 12.80889,-9.47404 9.96247,-7.0969 8.53926,-5.79648 7.11605,-4.57749 7.11605,-4.3101 7.11605,-4.01071 5.69284,-2.97341 5.69284,-2.74965 5.69284,-2.51361 5.69284,-2.2665 5.69284,-2.00953 5.69284,-1.7439 5.69284,-1.47085 5.69284,-1.19158 5.69284,-0.90729 5.69284,-0.61921 5.69284,-0.32856 5.69285,-0.0365 5.69283,0.25563 5.69285,0.54674 5.69284,0.83558 5.69284,1.12093 5.69284,1.40156 5.69284,1.67629 5.69284,1.94388 5.69284,2.20314 5.69284,2.45283 5.69284,2.69174 5.69284,2.91869 5.69284,3.13242 7.11605,4.19402 7.11605,4.47456 7.11605,4.72132 8.53926,5.93935 9.96247,7.21872 14.2321,10.62152 17.07852,12.7191 9.96247,7.12335 7.11605,4.83931 7.11605,4.5591 5.69284,3.40023 5.69284,3.14177 5.69284,2.84612 4.26963,1.91754 4.26963,1.71304 4.26963,1.4915 4.26963,1.25257 4.26963,0.99584 4.26963,0.72094 4.26963,0.42746 4.26963,0.11505 2.84642,-0.10639 2.84642,-0.25965 2.84642,-0.4188 2.84642,-0.58393 2.84642,-0.7551 2.84642,-0.9324 2.84642,-1.11591 2.84642,-1.30569 2.84642,-1.50182 2.84643,-1.70438 2.84641,-1.91345 2.84642,-2.1291 2.84643,-2.35139 2.84641,-2.58044 2.84642,-2.81628 2.84643,-3.059 2.84642,-3.3087 2.84642,-3.56541 2.84642,-3.82925 2.84642,-4.10028 2.84642,-4.37856 2.84642,-4.66418 2.84642,-4.95722 4.26963,-8.00169 4.26963,-8.7035 4.26963,-9.4313 4.26963,-10.18546 4.26963,-10.96639 4.26963,-11.77444 4.26963,-12.61002 4.26963,-13.47351 4.26963,-14.36529 4.26963,-15.28573 4.26963,-16.23524 4.26963,-17.21418 4.26963,-18.22296 4.26963,-19.26195 4.26963,-20.33152 4.26963,-21.432076 L 871.69091,66.96 v 0"
       clip-path="url(#pce7644dfea)"
       style="opacity:1;fill:none;stroke:#0000ff;stroke-width:2.00014;stroke-linecap:square;stroke-linejoin:round;stroke-dasharray:none"
       id="path61" /></g></svg>